# Blender 3.3.0
# www.blender.org
mtllib player_cloak.mtl
o Cloak
v 0.086167 1.049170 -0.068326
v 0.086167 1.050270 0.087008
v 0.040383 1.050270 0.103216
v 0.032333 1.047060 -0.082579
v 0.119511 1.050270 -0.038173
v 0.119511 1.050270 0.037797
v 0.000000 1.047060 -0.081967
v 0.135952 0.895950 -0.121388
v 0.135952 0.897500 0.097468
v 0.071446 0.897500 0.120304
v 0.060103 0.892978 -0.141469
v 0.182931 0.897500 -0.078904
v 0.182931 0.897500 0.028134
v 0.000000 0.892978 -0.140607
v 0.214579 0.463361 -0.197975
v 0.214579 0.466898 0.120685
v 0.146439 0.464613 0.153935
v 0.080232 0.456579 -0.227215
v 0.297790 0.466898 -0.136118
v 0.297790 0.466898 0.019732
v 0.000000 0.456579 -0.225958
v 0.231833 0.246050 -0.235874
v 0.253538 0.199842 0.129569
v 0.176538 0.172089 0.167700
v 0.069766 0.216567 -0.269407
v 0.319264 0.228401 -0.164936
v 0.337542 0.220405 0.013795
v 0.000000 0.216567 -0.267966
v 0.175265 0.679655 -0.159681
v 0.070168 0.674778 -0.184342
v 0.240361 0.682199 0.023933
v 0.240361 0.682199 -0.107511
v 0.108943 0.681057 0.137120
v 0.175265 0.682199 0.109076
v 0.000000 0.674778 -0.183283
v 0.046218 0.970019 -0.112024
v 0.000000 0.970019 -0.111287
v 0.111059 0.972560 -0.094857
v 0.151221 0.973885 -0.058539
v 0.111059 0.973885 0.092238
v 0.151221 0.973885 0.032965
v 0.055915 0.973885 0.111760
v 0.065136 0.783878 -0.162906
v 0.211646 0.789850 -0.093208
v 0.155609 0.789850 0.103272
v 0.000000 0.783878 -0.161945
v 0.155609 0.787803 -0.140534
v 0.211646 0.789850 0.026033
v 0.090194 0.789279 0.128712
v 0.194922 0.571508 -0.178828
v 0.269075 0.574549 0.021832
v 0.127691 0.572835 0.145527
v 0.075200 0.565679 -0.205778
v 0.269075 0.574549 -0.121815
v 0.194922 0.574549 0.114880
v 0.000000 0.565679 -0.204620
v 0.317666 0.343652 0.016763
v 0.308527 0.347650 -0.150527
v 0.161488 0.318351 0.160818
v 0.234059 0.333370 0.125127
v 0.074999 0.336573 -0.248311
v 0.000000 0.336573 -0.246962
v 0.223206 0.354706 -0.216925
v -0.086167 1.049170 -0.068326
v -0.086167 1.050270 0.087008
v -0.040383 1.050270 0.103216
v -0.032333 1.047060 -0.082579
v -0.119511 1.050270 -0.038173
v -0.119511 1.050270 0.037797
v -0.135952 0.895950 -0.121388
v -0.135952 0.897500 0.097468
v -0.071446 0.897500 0.120304
v -0.060103 0.892978 -0.141469
v -0.182931 0.897500 -0.078904
v -0.182931 0.897500 0.028134
v -0.214579 0.463361 -0.197975
v -0.214579 0.466898 0.120685
v -0.146439 0.464613 0.153935
v -0.080232 0.456579 -0.227215
v -0.297790 0.466898 -0.136118
v -0.297790 0.466898 0.019732
v -0.231833 0.246050 -0.235874
v -0.253538 0.199842 0.129569
v -0.176538 0.172089 0.167700
v -0.069766 0.216567 -0.269407
v -0.319264 0.228401 -0.164936
v -0.337542 0.220405 0.013795
v -0.175265 0.679655 -0.159681
v -0.070168 0.674778 -0.184342
v -0.240361 0.682199 0.023933
v -0.240361 0.682199 -0.107511
v -0.108943 0.681057 0.137120
v -0.175265 0.682199 0.109076
v -0.046218 0.970019 -0.112024
v -0.111059 0.972560 -0.094857
v -0.151221 0.973885 -0.058539
v -0.111059 0.973885 0.092238
v -0.151221 0.973885 0.032965
v -0.055915 0.973885 0.111760
v -0.065136 0.783878 -0.162906
v -0.211646 0.789850 -0.093208
v -0.155609 0.789850 0.103272
v -0.155609 0.787803 -0.140534
v -0.211646 0.789850 0.026033
v -0.090194 0.789279 0.128712
v -0.194922 0.571508 -0.178828
v -0.269075 0.574549 0.021832
v -0.127691 0.572835 0.145527
v -0.075200 0.565679 -0.205778
v -0.269075 0.574549 -0.121815
v -0.194922 0.574549 0.114880
v -0.317666 0.343652 0.016763
v -0.308527 0.347650 -0.150527
v -0.161488 0.318351 0.160818
v -0.234059 0.333370 0.125127
v -0.074999 0.336573 -0.248311
v -0.223206 0.354706 -0.216925
vn -0.0000 0.3552 -0.9348
vn 0.1045 0.3717 -0.9225
vn 0.1123 0.2842 -0.9522
vn -0.0000 0.2748 -0.9615
vn 0.4204 0.4159 -0.8064
vn 0.4369 0.3236 -0.8393
vn 0.8212 0.4383 -0.3654
vn 0.8491 0.3546 -0.3916
vn 0.8930 0.3531 0.2792
vn 0.5889 0.2447 0.7703
vn 0.6030 0.2056 0.7708
vn 0.9136 0.2926 0.2823
vn 0.3288 0.1708 0.9288
vn 0.3364 0.1489 0.9299
vn 0.0959 0.1984 -0.9754
vn 0.4040 0.2317 -0.8849
vn 0.4080 0.2019 -0.8904
vn 0.0939 0.1855 -0.9781
vn 0.8588 0.2816 -0.4280
vn 0.9169 0.2331 0.3241
vn 0.9297 0.1822 0.3201
vn 0.8747 0.2185 -0.4326
vn 0.6059 0.1623 0.7789
vn 0.4075 0.1320 0.9036
vn 0.4245 0.1125 0.8984
vn 0.6128 0.1354 0.7785
vn -0.0000 0.1920 -0.9814
vn -0.0000 0.1826 -0.9832
vn 0.8782 0.1608 -0.4504
vn 0.9443 0.1343 0.3004
vn 0.9468 0.1358 0.2916
vn 0.8826 0.1594 -0.4422
vn 0.6189 0.1089 0.7779
vn 0.4246 0.0889 0.9010
vn 0.4204 0.0884 0.9030
vn 0.6047 0.1077 0.7891
vn -0.0000 0.1731 -0.9849
vn 0.0832 0.1736 -0.9813
vn 0.0693 0.1736 -0.9824
vn -0.0000 0.1732 -0.9849
vn 0.4107 0.1736 -0.8951
vn 0.4135 0.1740 -0.8937
vn 0.4341 0.2348 -0.8697
vn 0.8690 0.2805 -0.4075
vn 0.8633 0.2812 -0.4191
vn 0.4172 0.2331 -0.8784
vn -0.0000 0.1921 -0.9814
vn 0.1071 0.1994 -0.9741
vn 0.1008 0.1988 -0.9748
vn 0.9238 0.2341 0.3028
vn 0.6020 0.1634 0.7816
vn 0.6032 0.1626 0.7808
vn 0.9200 0.2335 0.3146
vn 0.3575 0.1245 0.9256
vn 0.3833 0.1284 0.9147
vn 0.8285 0.4372 -0.3498
vn 0.8860 0.3484 0.3061
vn 0.5595 0.2367 0.7943
vn 0.4114 0.4147 -0.8116
vn 0.0963 0.3708 -0.9237
vn -0.0000 0.3551 -0.9348
vn -0.1123 0.2842 -0.9522
vn -0.1045 0.3717 -0.9225
vn -0.4369 0.3236 -0.8393
vn -0.4204 0.4159 -0.8064
vn -0.8491 0.3546 -0.3916
vn -0.8212 0.4383 -0.3654
vn -0.8930 0.3531 0.2792
vn -0.9136 0.2926 0.2823
vn -0.6030 0.2056 0.7708
vn -0.5889 0.2447 0.7703
vn -0.3364 0.1489 0.9299
vn -0.3288 0.1708 0.9288
vn -0.0959 0.1984 -0.9754
vn -0.0939 0.1855 -0.9781
vn -0.4080 0.2019 -0.8904
vn -0.4040 0.2317 -0.8849
vn -0.8588 0.2816 -0.4280
vn -0.8747 0.2185 -0.4326
vn -0.9297 0.1822 0.3201
vn -0.9169 0.2331 0.3241
vn -0.6059 0.1623 0.7789
vn -0.6128 0.1354 0.7785
vn -0.4245 0.1125 0.8984
vn -0.4075 0.1320 0.9036
vn -0.8782 0.1608 -0.4504
vn -0.8826 0.1594 -0.4422
vn -0.9468 0.1358 0.2916
vn -0.9443 0.1343 0.3004
vn -0.6189 0.1089 0.7779
vn -0.6047 0.1077 0.7891
vn -0.4204 0.0884 0.9030
vn -0.4246 0.0889 0.9010
vn -0.0693 0.1736 -0.9824
vn -0.0832 0.1736 -0.9813
vn -0.4107 0.1736 -0.8951
vn -0.4135 0.1740 -0.8937
vn -0.4341 0.2348 -0.8697
vn -0.4172 0.2331 -0.8784
vn -0.8633 0.2812 -0.4191
vn -0.8690 0.2805 -0.4075
vn -0.1008 0.1988 -0.9748
vn -0.1071 0.1994 -0.9741
vn -0.9238 0.2341 0.3028
vn -0.9200 0.2335 0.3146
vn -0.6032 0.1626 0.7808
vn -0.6020 0.1634 0.7816
vn -0.3833 0.1284 0.9147
vn -0.3575 0.1245 0.9256
vn -0.8285 0.4372 -0.3498
vn -0.8860 0.3484 0.3061
vn -0.5595 0.2367 0.7943
vn -0.4114 0.4147 -0.8116
vn -0.0963 0.3708 -0.9237
vt 0.458333 0.500000
vt 0.458333 0.750000
vt 0.458333 0.833333
vt 0.458333 0.416667
vt 0.458333 0.583333
vt 0.458333 0.666667
vt 0.458333 0.416667
vt 0.458333 0.500000
vt 0.458333 0.750000
vt 0.458333 0.833333
vt 0.458333 0.416667
vt 0.458333 0.583333
vt 0.458333 0.666667
vt 0.458333 0.416667
vt 0.458333 0.500000
vt 0.458333 0.750000
vt 0.458333 0.833333
vt 0.458333 0.416667
vt 0.458333 0.583333
vt 0.458333 0.666667
vt 0.458333 0.416667
vt 0.458333 0.500000
vt 0.458333 0.750000
vt 0.458333 0.833333
vt 0.458333 0.416667
vt 0.458333 0.583333
vt 0.458333 0.666667
vt 0.458333 0.416667
vt 0.458333 0.500000
vt 0.458333 0.416667
vt 0.458333 0.666667
vt 0.458333 0.583333
vt 0.458333 0.833333
vt 0.458333 0.750000
vt 0.458333 0.416667
vt 0.458333 0.416667
vt 0.458333 0.416667
vt 0.458333 0.500000
vt 0.458333 0.583333
vt 0.458333 0.750000
vt 0.458333 0.666667
vt 0.458333 0.833333
vt 0.458333 0.416667
vt 0.458333 0.583333
vt 0.458333 0.750000
vt 0.458333 0.416667
vt 0.458333 0.500000
vt 0.458333 0.666667
vt 0.458333 0.833333
vt 0.458333 0.500000
vt 0.458333 0.666667
vt 0.458333 0.833333
vt 0.458333 0.416667
vt 0.458333 0.583333
vt 0.458333 0.750000
vt 0.458333 0.416667
vt 0.458333 0.666667
vt 0.458333 0.583333
vt 0.458333 0.833333
vt 0.458333 0.750000
vt 0.458333 0.416667
vt 0.458333 0.416667
vt 0.458333 0.500000
vt 0.458333 0.500000
vt 0.458333 0.750000
vt 0.458333 0.833333
vt 0.458333 0.416667
vt 0.458333 0.583333
vt 0.458333 0.666667
vt 0.458333 0.500000
vt 0.458333 0.750000
vt 0.458333 0.833333
vt 0.458333 0.416667
vt 0.458333 0.583333
vt 0.458333 0.666667
vt 0.458333 0.500000
vt 0.458333 0.750000
vt 0.458333 0.833333
vt 0.458333 0.416667
vt 0.458333 0.583333
vt 0.458333 0.666667
vt 0.458333 0.500000
vt 0.458333 0.750000
vt 0.458333 0.833333
vt 0.458333 0.416667
vt 0.458333 0.583333
vt 0.458333 0.666667
vt 0.458333 0.500000
vt 0.458333 0.416667
vt 0.458333 0.666667
vt 0.458333 0.583333
vt 0.458333 0.833333
vt 0.458333 0.750000
vt 0.458333 0.416667
vt 0.458333 0.500000
vt 0.458333 0.583333
vt 0.458333 0.750000
vt 0.458333 0.666667
vt 0.458333 0.833333
vt 0.458333 0.416667
vt 0.458333 0.583333
vt 0.458333 0.750000
vt 0.458333 0.500000
vt 0.458333 0.666667
vt 0.458333 0.833333
vt 0.458333 0.500000
vt 0.458333 0.666667
vt 0.458333 0.833333
vt 0.458333 0.416667
vt 0.458333 0.583333
vt 0.458333 0.750000
vt 0.458333 0.666667
vt 0.458333 0.583333
vt 0.458333 0.833333
vt 0.458333 0.750000
vt 0.458333 0.416667
vt 0.458333 0.500000
s 1
f 37/37/1 36/36/2 11/11/3 14/14/4
f 36/36/2 38/38/5 8/8/6 11/11/3
f 38/38/5 39/39/7 12/12/8 8/8/6
f 41/41/9 40/40/10 9/9/11 13/13/12
f 40/40/10 42/42/13 10/10/14 9/9/11
f 39/39/7 41/41/9 13/13/12 12/12/8
f 53/53/15 50/50/16 15/15/17 18/18/18
f 54/54/19 51/51/20 20/20/21 19/19/22
f 55/55/23 52/52/24 17/17/25 16/16/26
f 51/51/20 55/55/23 16/16/26 20/20/21
f 56/56/27 53/53/15 18/18/18 21/21/28
f 50/50/16 54/54/19 19/19/22 15/15/17
f 58/58/29 57/57/30 27/27/31 26/26/32
f 60/60/33 59/59/34 24/24/35 23/23/36
f 57/57/30 60/60/33 23/23/36 27/27/31
f 62/62/37 61/61/38 25/25/39 28/28/40
f 63/63/41 58/58/29 26/26/32 22/22/42
f 61/61/38 63/63/41 22/22/42 25/25/39
f 47/47/43 44/44/44 32/32/45 29/29/46
f 46/46/47 43/43/48 30/30/49 35/35/27
f 48/48/50 45/45/51 34/34/52 31/31/53
f 45/45/51 49/49/54 33/33/55 34/34/52
f 44/44/44 48/48/50 31/31/53 32/32/45
f 43/43/48 47/47/43 29/29/46 30/30/49
f 5/5/56 6/6/57 41/41/9 39/39/7
f 2/2/58 3/3/13 42/42/13 40/40/10
f 6/6/57 2/2/58 40/40/10 41/41/9
f 1/1/59 5/5/56 39/39/7 38/38/5
f 4/4/60 1/1/59 38/38/5 36/36/2
f 7/7/61 4/4/60 36/36/2 37/37/1
f 11/11/3 8/8/6 47/47/43 43/43/48
f 12/12/8 13/13/12 48/48/50 44/44/44
f 9/9/11 10/10/14 49/49/54 45/45/51
f 13/13/12 9/9/11 45/45/51 48/48/50
f 14/14/4 11/11/3 43/43/48 46/46/47
f 8/8/6 12/12/8 44/44/44 47/47/43
f 29/29/46 32/32/45 54/54/19 50/50/16
f 35/35/27 30/30/49 53/53/15 56/56/27
f 31/31/53 34/34/52 55/55/23 51/51/20
f 34/34/52 33/33/55 52/52/24 55/55/23
f 32/32/45 31/31/53 51/51/20 54/54/19
f 30/30/49 29/29/46 50/50/16 53/53/15
f 18/18/18 15/15/17 63/63/41 61/61/38
f 15/15/17 19/19/22 58/58/29 63/63/41
f 21/21/28 18/18/18 61/61/38 62/62/37
f 20/20/21 16/16/26 60/60/33 57/57/30
f 16/16/26 17/17/25 59/59/34 60/60/33
f 19/19/22 20/20/21 57/57/30 58/58/29
f 37/37/1 14/14/4 73/73/62 94/94/63
f 94/94/63 73/73/62 70/70/64 95/95/65
f 95/95/65 70/70/64 74/74/66 96/96/67
f 98/98/68 75/75/69 71/71/70 97/97/71
f 97/97/71 71/71/70 72/72/72 99/99/73
f 96/96/67 74/74/66 75/75/69 98/98/68
f 109/109/74 79/79/75 76/76/76 106/106/77
f 110/110/78 80/80/79 81/81/80 107/107/81
f 111/111/82 77/77/83 78/78/84 108/108/85
f 107/107/81 81/81/80 77/77/83 111/111/82
f 56/56/27 21/21/28 79/79/75 109/109/74
f 106/106/77 76/76/76 80/80/79 110/110/78
f 113/113/86 86/86/87 87/87/88 112/112/89
f 115/115/90 83/83/91 84/84/92 114/114/93
f 112/112/89 87/87/88 83/83/91 115/115/90
f 62/62/37 28/28/40 85/85/94 116/116/95
f 117/117/96 82/82/97 86/86/87 113/113/86
f 116/116/95 85/85/94 82/82/97 117/117/96
f 103/103/98 88/88/99 91/91/100 101/101/101
f 46/46/47 35/35/27 89/89/102 100/100/103
f 104/104/104 90/90/105 93/93/106 102/102/107
f 102/102/107 93/93/106 92/92/108 105/105/109
f 101/101/101 91/91/100 90/90/105 104/104/104
f 100/100/103 89/89/102 88/88/99 103/103/98
f 68/68/110 96/96/67 98/98/68 69/69/111
f 65/65/112 97/97/71 99/99/73 66/66/73
f 69/69/111 98/98/68 97/97/71 65/65/112
f 64/64/113 95/95/65 96/96/67 68/68/110
f 67/67/114 94/94/63 95/95/65 64/64/113
f 7/7/61 37/37/1 94/94/63 67/67/114
f 73/73/62 100/100/103 103/103/98 70/70/64
f 74/74/66 101/101/101 104/104/104 75/75/69
f 71/71/70 102/102/107 105/105/109 72/72/72
f 75/75/69 104/104/104 102/102/107 71/71/70
f 14/14/4 46/46/47 100/100/103 73/73/62
f 70/70/64 103/103/98 101/101/101 74/74/66
f 88/88/99 106/106/77 110/110/78 91/91/100
f 35/35/27 56/56/27 109/109/74 89/89/102
f 90/90/105 107/107/81 111/111/82 93/93/106
f 93/93/106 111/111/82 108/108/85 92/92/108
f 91/91/100 110/110/78 107/107/81 90/90/105
f 89/89/102 109/109/74 106/106/77 88/88/99
f 79/79/75 116/116/95 117/117/96 76/76/76
f 76/76/76 117/117/96 113/113/86 80/80/79
f 21/21/28 62/62/37 116/116/95 79/79/75
f 81/81/80 112/112/89 115/115/90 77/77/83
f 77/77/83 115/115/90 114/114/93 78/78/84
f 80/80/79 113/113/86 112/112/89 81/81/80
