# Blender 3.3.0
# www.blender.org
mtllib cut_cone.mtl
o Circle
v 0.000000 0.000000 -0.682566
v -0.261207 0.000000 -0.630609
v -0.482647 0.000000 -0.482647
v -0.630609 0.000000 -0.261207
v -0.682566 0.000000 0.000000
v -0.630609 0.000000 0.261207
v -0.482647 0.000000 0.482647
v -0.261207 0.000000 0.630609
v 0.000000 0.000000 0.682566
v 0.261207 0.000000 0.630609
v 0.482647 0.000000 0.482647
v 0.630609 0.000000 0.261207
v 0.682566 0.000000 0.000000
v 0.630609 0.000000 -0.261207
v 0.482647 0.000000 -0.482647
v 0.261207 0.000000 -0.630609
v 0.000000 0.876729 -1.233895
v -0.472191 0.876729 -1.139971
v -0.872496 0.876729 -0.872496
v -1.139971 0.876729 -0.472191
v -1.233895 0.876729 0.000000
v -1.139971 0.876729 0.472191
v -0.872496 0.876729 0.872496
v -0.472191 0.876729 1.139971
v 0.000000 0.876729 1.233895
v 0.472191 0.876729 1.139971
v 0.872496 0.876729 0.872496
v 1.139971 0.876729 0.472191
v 1.233895 0.876729 0.000000
v 1.139971 0.876729 -0.472191
v 0.872496 0.876729 -0.872496
v 0.472191 0.876729 -1.139971
vn 0.7821 0.5323 -0.3240
vn 0.8465 0.5323 -0.0000
vn -0.7821 0.5323 0.3240
vn -0.8465 0.5323 -0.0000
vn 0.5986 0.5323 -0.5986
vn -0.5986 0.5323 0.5986
vn 0.3240 0.5323 -0.7821
vn -0.3240 0.5323 0.7821
vn -0.0000 0.5323 -0.8465
vn 0.3240 0.5323 0.7821
vn -0.0000 0.5323 0.8465
vn -0.3240 0.5323 -0.7821
vn 0.5986 0.5323 0.5986
vn -0.5986 0.5323 -0.5986
vn 0.7821 0.5323 0.3240
vn -0.7821 0.5323 -0.3240
vt 0.312557 0.999994
vt 0.375051 0.999994
vt 0.437545 0.999994
vt 0.500040 0.999994
vt 0.562534 0.999994
vt 0.625028 0.999994
vt 0.687523 0.999994
vt 0.750017 0.999994
vt 0.812511 0.999994
vt 0.875005 0.999994
vt 0.937500 0.999994
vt 0.999994 0.999994
vt 0.000085 0.999994
vt 0.062579 0.999994
vt 0.125074 0.999994
vt 0.187568 0.999994
vt 0.250062 0.999994
vt 0.312557 0.000006
vt 0.375051 0.000006
vt 0.437545 0.000006
vt 0.500040 0.000006
vt 0.562534 0.000006
vt 0.625028 0.000006
vt 0.687522 0.000006
vt 0.750017 0.000006
vt 0.812511 0.000006
vt 0.875005 0.000006
vt 0.937499 0.000006
vt 0.999994 0.000006
vt 0.000085 0.000006
vt 0.062579 0.000006
vt 0.125074 0.000006
vt 0.187568 0.000006
vt 0.250062 0.000006
s 1
f 6/6/1 5/5/2 21/22/2 22/23/1
f 14/15/3 13/14/4 29/31/4 30/32/3
f 7/7/5 6/6/1 22/23/1 23/24/5
f 15/16/6 14/15/3 30/32/3 31/33/6
f 8/8/7 7/7/5 23/24/5 24/25/7
f 16/17/8 15/16/6 31/33/6 32/34/8
f 9/9/9 8/8/7 24/25/7 25/26/9
f 2/2/10 1/1/11 17/18/11 18/19/10
f 1/1/11 16/17/8 32/34/8 17/18/11
f 10/10/12 9/9/9 25/26/9 26/27/12
f 3/3/13 2/2/10 18/19/10 19/20/13
f 11/11/14 10/10/12 26/27/12 27/28/14
f 4/4/15 3/3/13 19/20/13 20/21/15
f 12/12/16 11/11/14 27/28/14 28/29/16
f 5/5/2 4/4/15 20/21/15 21/22/2
f 13/14/4 12/13/16 28/30/16 29/31/4
