# Blender 3.3.0
# www.blender.org
mtllib round_projectile_head.mtl
o Sphere
v 0.097427 0.000000 -0.235209
v -0.743031 -0.000000 -0.187121
v 0.235209 -0.037283 -0.090010
v 0.180021 -0.068891 -0.166318
v 0.097427 -0.090010 -0.217304
v -0.743031 -0.071608 -0.172878
v 0.235209 -0.068891 -0.068891
v 0.180021 -0.127294 -0.127294
v 0.097427 -0.166318 -0.166318
v -0.743031 -0.132315 -0.132315
v 0.235209 -0.090010 -0.037284
v 0.180021 -0.166317 -0.068891
v 0.097427 -0.217304 -0.090010
v -0.743031 -0.172878 -0.071608
v 0.235209 -0.097426 -0.000000
v 0.180021 -0.180021 -0.000000
v 0.097427 -0.235208 0.000000
v -0.743031 -0.187121 0.000000
v 0.235209 -0.090010 0.037284
v 0.180021 -0.166317 0.068891
v 0.097427 -0.217304 0.090010
v -0.743031 -0.172878 0.071608
v 0.235209 -0.068891 0.068891
v 0.180021 -0.127294 0.127294
v 0.097427 -0.166317 0.166318
v -0.743031 -0.132315 0.132315
v 0.235209 -0.037283 0.090010
v 0.180021 -0.068891 0.166317
v 0.097427 -0.090010 0.217304
v -0.743031 -0.071608 0.172878
v 0.235209 0.000000 0.097427
v 0.180021 0.000000 0.180021
v 0.097427 0.000000 0.235208
v -0.743031 0.000000 0.187121
v 0.254588 0.000000 -0.000000
v 0.235209 0.037284 0.090010
v 0.180021 0.068891 0.166317
v 0.097427 0.090010 0.217304
v -0.743031 0.071608 0.172878
v 0.235209 0.068891 0.068891
v 0.180021 0.127294 0.127294
v 0.097427 0.166318 0.166317
v -0.743031 0.132315 0.132315
v 0.235208 0.090010 0.037283
v 0.180021 0.166318 0.068891
v 0.097427 0.217304 0.090010
v -0.743031 0.172878 0.071608
v -0.636573 0.075242 -0.181651
v -0.530114 0.078876 -0.190425
v -0.423656 0.082511 -0.199198
v 0.235208 0.097427 -0.000000
v 0.180021 0.180021 -0.000000
v 0.097426 0.235208 -0.000000
v -0.743031 0.187121 -0.000000
v -0.317198 0.086145 -0.207972
v -0.210739 0.089779 -0.216746
v -0.104281 0.093413 -0.225519
v 0.235208 0.090010 -0.037284
v 0.180021 0.166317 -0.068891
v 0.097426 0.217304 -0.090010
v -0.743031 0.172878 -0.071608
v -0.636573 0.139030 -0.139030
v -0.530114 0.145745 -0.145745
v -0.423656 0.152460 -0.152460
v 0.235208 0.068891 -0.068891
v 0.180021 0.127294 -0.127294
v 0.097426 0.166317 -0.166318
v -0.743031 0.132315 -0.132315
v -0.317198 0.159175 -0.159175
v -0.210739 0.165890 -0.165890
v -0.104281 0.172605 -0.172605
v 0.235208 0.037284 -0.090010
v 0.180021 0.068891 -0.166318
v 0.097426 0.090010 -0.217304
v -0.743031 0.071608 -0.172878
v -0.636573 0.181651 -0.075243
v -0.530114 0.190425 -0.078877
v -0.423656 0.199198 -0.082511
v 0.235208 -0.000000 -0.097427
v 0.180021 -0.000000 -0.180021
v -0.317198 0.207972 -0.086145
v -0.210739 0.216746 -0.089779
v -0.104281 0.225519 -0.093413
v -0.636573 0.196618 -0.000000
v -0.530114 0.206114 -0.000000
v -0.423656 0.215611 -0.000000
v -0.317197 0.225107 -0.000000
v -0.210739 0.234604 -0.000000
v -0.104281 0.244100 -0.000000
v -0.636573 0.181651 0.075242
v -0.530114 0.190425 0.078876
v -0.423656 0.199199 0.082511
v -0.317197 0.207972 0.086145
v -0.210739 0.216746 0.089779
v -0.104281 0.225519 0.093413
v -0.636573 0.139030 0.139030
v -0.530114 0.145745 0.145745
v -0.423656 0.152460 0.152460
v -0.317197 0.159175 0.159175
v -0.210739 0.165890 0.165890
v -0.104281 0.172605 0.172605
v -0.636573 0.075242 0.181651
v -0.530114 0.078877 0.190425
v -0.423656 0.082511 0.199198
v -0.317197 0.086145 0.207972
v -0.210739 0.089779 0.216746
v -0.104281 0.093413 0.225519
v -0.636573 0.000000 0.196618
v -0.530114 0.000000 0.206114
v -0.423656 0.000000 0.215611
v -0.317197 0.000000 0.225107
v -0.210739 0.000000 0.234604
v -0.104281 0.000000 0.244100
v -0.636573 -0.075242 0.181651
v -0.530114 -0.078877 0.190425
v -0.423656 -0.082511 0.199198
v -0.317197 -0.086145 0.207972
v -0.210739 -0.089779 0.216746
v -0.104280 -0.093413 0.225519
v -0.636573 -0.139030 0.139030
v -0.530114 -0.145745 0.145745
v -0.423656 -0.152460 0.152460
v -0.317197 -0.159175 0.159175
v -0.210739 -0.165890 0.165890
v -0.104280 -0.172605 0.172605
v -0.636573 -0.181651 0.075242
v -0.530114 -0.190425 0.078877
v -0.423656 -0.199198 0.082511
v -0.317197 -0.207972 0.086145
v -0.210739 -0.216746 0.089779
v -0.104280 -0.225519 0.093413
v -0.636573 -0.196618 0.000000
v -0.530114 -0.206114 0.000000
v -0.423656 -0.215611 0.000000
v -0.317197 -0.225107 0.000000
v -0.210739 -0.234604 0.000000
v -0.104280 -0.244100 0.000000
v -0.636573 -0.181651 -0.075242
v -0.530114 -0.190425 -0.078877
v -0.423656 -0.199199 -0.082511
v -0.317197 -0.207972 -0.086145
v -0.210739 -0.216746 -0.089779
v -0.104281 -0.225519 -0.093413
v -0.636573 -0.139030 -0.139030
v -0.530114 -0.145745 -0.145745
v -0.423656 -0.152460 -0.152460
v -0.317197 -0.159175 -0.159175
v -0.210739 -0.165890 -0.165890
v -0.104281 -0.172605 -0.172605
v -0.636573 -0.075242 -0.181651
v -0.530114 -0.078877 -0.190425
v -0.423656 -0.082511 -0.199198
v -0.317197 -0.086145 -0.207972
v -0.210739 -0.089779 -0.216746
v -0.104281 -0.093413 -0.225519
v -0.636573 0.000000 -0.196618
v -0.530114 0.000000 -0.206114
v -0.423656 0.000000 -0.215611
v -0.317197 0.000000 -0.225107
v -0.210739 0.000000 -0.234604
v -0.104281 0.000000 -0.244100
v 0.002178 0.097047 -0.234293
v 0.002178 0.179320 -0.179320
v 0.002178 0.234293 -0.097047
v 0.002178 0.253597 -0.000000
v 0.002178 0.234293 0.097047
v 0.002178 0.179320 0.179320
v 0.002178 0.097047 0.234293
v 0.002178 0.000000 0.253597
v 0.002178 -0.097047 0.234293
v 0.002178 -0.179320 0.179320
v 0.002178 -0.234293 0.097047
v 0.002178 -0.253597 0.000000
v 0.002178 -0.234293 -0.097047
v 0.002178 -0.179320 -0.179320
v 0.002178 -0.097047 -0.234293
v 0.002178 0.000000 -0.253597
vn 0.3717 -0.0000 -0.9284
vn 0.6952 -0.0000 -0.7189
vn 0.6952 -0.2751 -0.6641
vn 0.3717 -0.3553 -0.8577
vn 0.9152 -0.0000 -0.4031
vn 1.0000 -0.0000 -0.0000
vn 0.9152 -0.1543 -0.3724
vn 0.0500 -0.0000 -0.9987
vn 0.0500 -0.3822 -0.9227
vn 0.6952 -0.5083 -0.5083
vn 0.3717 -0.6564 -0.6564
vn 0.9152 -0.2850 -0.2850
vn 0.0500 -0.7062 -0.7062
vn 0.3717 -0.8577 -0.3553
vn 0.0500 -0.9227 -0.3822
vn 0.9152 -0.3724 -0.1543
vn 0.6952 -0.6641 -0.2751
vn 0.9152 -0.4031 -0.0000
vn 0.6952 -0.7189 -0.0000
vn 0.3717 -0.9284 -0.0000
vn 0.0500 -0.9987 -0.0000
vn 0.6952 -0.6641 0.2751
vn 0.3717 -0.8577 0.3553
vn 0.9152 -0.3724 0.1543
vn 0.0500 -0.9227 0.3822
vn 0.9152 -0.2850 0.2850
vn 0.3717 -0.6564 0.6564
vn 0.0500 -0.7062 0.7062
vn 0.6952 -0.5083 0.5083
vn 0.3717 -0.3553 0.8577
vn 0.0500 -0.3822 0.9227
vn 0.9152 -0.1543 0.3724
vn 0.6952 -0.2751 0.6641
vn 0.6952 -0.0000 0.7189
vn 0.3717 -0.0000 0.9284
vn 0.9152 -0.0000 0.4031
vn 0.0500 -0.0000 0.9987
vn 0.6952 0.2751 0.6641
vn 0.3717 0.3553 0.8577
vn 0.9152 0.1543 0.3724
vn 0.0500 0.3822 0.9227
vn 0.3717 0.6564 0.6564
vn 0.0500 0.7062 0.7062
vn 0.9152 0.2850 0.2850
vn 0.6952 0.5083 0.5083
vn -0.0889 -0.9202 -0.3812
vn -0.0889 -0.9960 -0.0000
vn 0.3717 0.8577 0.3553
vn 0.0500 0.9227 0.3822
vn 0.9152 0.3724 0.1543
vn 0.6952 0.6641 0.2751
vn -0.0889 -0.3812 -0.9202
vn -0.0889 -0.7043 -0.7043
vn 0.6952 0.7189 -0.0000
vn 0.3717 0.9284 -0.0000
vn 0.9152 0.4031 -0.0000
vn 0.0500 0.9987 -0.0000
vn 0.6952 0.6641 -0.2751
vn 0.3717 0.8577 -0.3553
vn 0.9152 0.3724 -0.1543
vn 0.0500 0.9227 -0.3822
vn 0.3717 0.6564 -0.6564
vn 0.0500 0.7062 -0.7062
vn 0.9152 0.2850 -0.2850
vn 0.6952 0.5083 -0.5083
vn 0.9152 0.1543 -0.3724
vn 0.6952 0.2751 -0.6641
vn 0.3717 0.3553 -0.8577
vn 0.0500 0.3822 -0.9227
vn -0.0889 -0.0000 -0.9960
vn -0.0889 0.3812 0.9202
vn -0.0889 0.7043 0.7043
vn -0.0889 -0.0000 0.9960
vn -0.0889 0.9202 0.3812
vn -0.0889 0.9960 -0.0000
vn -0.0889 0.9202 -0.3812
vn -0.0889 0.7043 -0.7043
vn -0.0889 0.3812 -0.9202
vn -0.0889 -0.3812 0.9202
vn -0.0889 -0.9202 0.3812
vn -0.0889 -0.7043 0.7043
vt 0.750000 0.678664
vt 0.750000 0.007527
vt 0.687500 0.887796
vt 0.687500 0.783230
vt 0.687500 0.678664
vt 0.687500 0.007527
vt 0.625000 0.887796
vt 0.625000 0.783230
vt 0.625000 0.678664
vt 0.625000 0.007527
vt 0.562500 0.887796
vt 0.562500 0.783230
vt 0.562500 0.678664
vt 0.562500 0.007527
vt 0.500000 0.887796
vt 0.500000 0.783230
vt 0.500000 0.678664
vt 0.500000 0.007527
vt 0.437500 0.887796
vt 0.437500 0.783230
vt 0.437500 0.678664
vt 0.437500 0.007527
vt 0.375000 0.887796
vt 0.375000 0.783230
vt 0.375000 0.678664
vt 0.375000 0.007527
vt 0.312500 0.887796
vt 0.312500 0.783230
vt 0.312500 0.678664
vt 0.312500 0.007527
vt 0.250000 0.887796
vt 0.250000 0.783230
vt 0.250000 0.678664
vt 0.250000 0.007527
vt 0.718750 0.992362
vt 0.656250 0.992362
vt 0.593750 0.992362
vt 0.531250 0.992362
vt 0.468750 0.992362
vt 0.406250 0.992362
vt 0.343750 0.992362
vt 0.281250 0.992362
vt 0.218750 0.992362
vt 0.156250 0.992362
vt 0.093750 0.992362
vt 0.031250 0.992362
vt 0.968750 0.992362
vt 0.906250 0.992362
vt 0.843750 0.992362
vt 0.781250 0.992362
vt 0.187500 0.887796
vt 0.187500 0.783230
vt 0.187500 0.678664
vt 0.187500 0.007527
vt 0.125000 0.887796
vt 0.125000 0.783230
vt 0.125000 0.678664
vt 0.125000 0.007527
vt 0.062500 0.887796
vt 0.062500 0.783230
vt 0.062500 0.678664
vt 0.062500 0.007527
vt 0.812500 0.090938
vt 0.812500 0.174350
vt 0.812500 0.257762
vt 0.000000 0.887796
vt 1.000000 0.887796
vt 0.000000 0.783230
vt 1.000000 0.783230
vt 0.000000 0.678664
vt 1.000000 0.678664
vt 1.000000 0.007527
vt 0.000000 0.007527
vt 0.812500 0.341174
vt 0.812500 0.424587
vt 0.812500 0.507999
vt 0.937500 0.887796
vt 0.937500 0.783230
vt 0.937500 0.678664
vt 0.937500 0.007527
vt 0.875000 0.090938
vt 0.875000 0.174350
vt 0.875000 0.257762
vt 0.875000 0.887796
vt 0.875000 0.783230
vt 0.875000 0.678664
vt 0.875000 0.007527
vt 0.875000 0.341174
vt 0.875000 0.424587
vt 0.875000 0.507999
vt 0.812500 0.887796
vt 0.812500 0.783230
vt 0.812500 0.678664
vt 0.812500 0.007527
vt 0.937500 0.090938
vt 0.937500 0.174350
vt 0.937500 0.257762
vt 0.750000 0.887796
vt 0.750000 0.783230
vt 0.937500 0.341174
vt 0.937500 0.424587
vt 0.937500 0.507999
vt 1.000000 0.090938
vt 0.000000 0.090938
vt 1.000000 0.174350
vt 0.000000 0.174350
vt 1.000000 0.257762
vt 0.000000 0.257762
vt 1.000000 0.341174
vt 0.000000 0.341174
vt 1.000000 0.424587
vt 0.000000 0.424587
vt 1.000000 0.507999
vt 0.000000 0.507999
vt 0.062500 0.090938
vt 0.062500 0.174350
vt 0.062500 0.257762
vt 0.062500 0.341174
vt 0.062500 0.424587
vt 0.062500 0.507999
vt 0.125000 0.090938
vt 0.125000 0.174350
vt 0.125000 0.257762
vt 0.125000 0.341174
vt 0.125000 0.424587
vt 0.125000 0.507999
vt 0.187500 0.090938
vt 0.187500 0.174350
vt 0.187500 0.257762
vt 0.187500 0.341174
vt 0.187500 0.424587
vt 0.187500 0.507999
vt 0.250000 0.090938
vt 0.250000 0.174350
vt 0.250000 0.257762
vt 0.250000 0.341174
vt 0.250000 0.424587
vt 0.250000 0.507999
vt 0.312500 0.090938
vt 0.312500 0.174350
vt 0.312500 0.257762
vt 0.312500 0.341174
vt 0.312500 0.424587
vt 0.312500 0.507999
vt 0.375000 0.090938
vt 0.375000 0.174350
vt 0.375000 0.257762
vt 0.375000 0.341174
vt 0.375000 0.424587
vt 0.375000 0.507999
vt 0.437500 0.090938
vt 0.437500 0.174350
vt 0.437500 0.257762
vt 0.437500 0.341174
vt 0.437500 0.424587
vt 0.437500 0.507999
vt 0.500000 0.090938
vt 0.500000 0.174350
vt 0.500000 0.257762
vt 0.500000 0.341174
vt 0.500000 0.424587
vt 0.500000 0.507999
vt 0.562500 0.090938
vt 0.562500 0.174350
vt 0.562500 0.257762
vt 0.562500 0.341174
vt 0.562500 0.424587
vt 0.562500 0.507999
vt 0.625000 0.090938
vt 0.625000 0.174350
vt 0.625000 0.257762
vt 0.625000 0.341174
vt 0.625000 0.424587
vt 0.625000 0.507999
vt 0.687500 0.090938
vt 0.687500 0.174350
vt 0.687500 0.257762
vt 0.687500 0.341174
vt 0.687500 0.424587
vt 0.687500 0.507999
vt 0.750000 0.090938
vt 0.750000 0.174350
vt 0.750000 0.257762
vt 0.750000 0.341174
vt 0.750000 0.424587
vt 0.750000 0.507999
vt 0.812500 0.591411
vt 0.875000 0.591411
vt 0.937500 0.591411
vt 0.000000 0.591411
vt 1.000000 0.591411
vt 0.062500 0.591411
vt 0.125000 0.591411
vt 0.187500 0.591411
vt 0.250000 0.591411
vt 0.312500 0.591411
vt 0.375000 0.591411
vt 0.437500 0.591411
vt 0.500000 0.591411
vt 0.562500 0.591411
vt 0.625000 0.591411
vt 0.687500 0.591411
vt 0.750000 0.591411
s 1
f 1/1/1 80/99/2 4/4/3 5/5/4
f 79/98/5 35/35/6 3/3/7
f 177/203/8 1/1/1 5/5/4 176/202/9
f 80/99/2 79/98/5 3/3/7 4/4/3
f 5/5/4 4/4/3 8/8/10 9/9/11
f 3/3/7 35/36/6 7/7/12
f 176/202/9 5/5/4 9/9/11 175/201/13
f 4/4/3 3/3/7 7/7/12 8/8/10
f 175/201/13 9/9/11 13/13/14 174/200/15
f 8/8/10 7/7/12 11/11/16 12/12/17
f 9/9/11 8/8/10 12/12/17 13/13/14
f 7/7/12 35/37/6 11/11/16
f 12/12/17 11/11/16 15/15/18 16/16/19
f 13/13/14 12/12/17 16/16/19 17/17/20
f 11/11/16 35/38/6 15/15/18
f 174/200/15 13/13/14 17/17/20 173/199/21
f 17/17/20 16/16/19 20/20/22 21/21/23
f 15/15/18 35/39/6 19/19/24
f 173/199/21 17/17/20 21/21/23 172/198/25
f 16/16/19 15/15/18 19/19/24 20/20/22
f 19/19/24 35/40/6 23/23/26
f 172/198/25 21/21/23 25/25/27 171/197/28
f 20/20/22 19/19/24 23/23/26 24/24/29
f 21/21/23 20/20/22 24/24/29 25/25/27
f 171/197/28 25/25/27 29/29/30 170/196/31
f 24/24/29 23/23/26 27/27/32 28/28/33
f 25/25/27 24/24/29 28/28/33 29/29/30
f 23/23/26 35/41/6 27/27/32
f 29/29/30 28/28/33 32/32/34 33/33/35
f 27/27/32 35/42/6 31/31/36
f 170/196/31 29/29/30 33/33/35 169/195/37
f 28/28/33 27/27/32 31/31/36 32/32/34
f 33/33/35 32/32/34 37/52/38 38/53/39
f 31/31/36 35/43/6 36/51/40
f 169/195/37 33/33/35 38/53/39 168/194/41
f 32/32/34 31/31/36 36/51/40 37/52/38
f 168/194/41 38/53/39 42/57/42 167/193/43
f 37/52/38 36/51/40 40/55/44 41/56/45
f 139/164/46 140/165/46 134/159/47 133/158/47
f 38/53/39 37/52/38 41/56/45 42/57/42
f 36/51/40 35/44/6 40/55/44
f 167/193/43 42/57/42 46/61/48 166/192/49
f 41/56/45 40/55/44 44/59/50 45/60/51
f 153/178/52 154/179/52 148/173/53 147/172/53
f 138/163/46 139/164/46 133/158/47 132/157/47
f 42/57/42 41/56/45 45/60/51 46/61/48
f 40/55/44 35/45/6 44/59/50
f 154/179/52 155/180/52 149/174/53 148/173/53
f 145/170/53 146/171/53 140/165/46 139/164/46
f 14/14/46 138/163/46 132/157/47 18/18/47
f 46/61/48 45/60/51 52/68/54 53/70/55
f 44/59/50 35/46/6 51/66/56
f 146/171/53 147/172/53 141/166/46 140/165/46
f 166/192/49 46/61/48 53/70/55 165/190/57
f 45/60/51 44/59/50 51/66/56 52/68/54
f 53/71/55 52/69/54 59/78/58 60/79/59
f 51/67/56 35/47/6 58/77/60
f 152/177/52 153/178/52 147/172/53 146/171/53
f 165/191/57 53/71/55 60/79/59 164/189/61
f 52/69/54 51/67/56 58/77/60 59/78/58
f 141/166/46 142/167/46 136/161/47 135/160/47
f 151/176/52 152/177/52 146/171/53 145/170/53
f 148/173/53 149/174/53 143/168/46 142/167/46
f 164/189/61 60/79/59 67/86/62 163/188/63
f 59/78/58 58/77/60 65/84/64 66/85/65
f 142/167/46 143/168/46 137/162/47 136/161/47
f 140/165/46 141/166/46 135/160/47 134/159/47
f 60/79/59 59/78/58 66/85/65 67/86/62
f 58/77/60 35/48/6 65/84/64
f 66/85/65 65/84/64 72/91/66 73/92/67
f 144/169/53 145/170/53 139/164/46 138/163/46
f 147/172/53 148/173/53 142/167/46 141/166/46
f 67/86/62 66/85/65 73/92/67 74/93/68
f 65/84/64 35/49/6 72/91/66
f 10/10/53 144/169/53 138/163/46 14/14/46
f 163/188/63 67/86/62 74/93/68 162/187/69
f 74/93/68 73/92/67 80/99/2 1/1/1
f 72/91/66 35/50/6 79/98/5
f 162/187/69 74/93/68 1/1/1 177/203/8
f 73/92/67 72/91/66 79/98/5 80/99/2
f 143/168/46 174/200/15 173/199/21 137/162/47
f 149/174/53 175/201/13 174/200/15 143/168/46
f 155/180/52 176/202/9 175/201/13 149/174/53
f 161/186/70 177/203/8 176/202/9 155/180/52
f 39/54/71 102/127/71 96/121/72 43/58/72
f 102/127/71 103/128/71 97/122/72 96/121/72
f 103/128/71 104/129/71 98/123/72 97/122/72
f 104/129/71 105/130/71 99/124/72 98/123/72
f 105/130/71 106/131/71 100/125/72 99/124/72
f 106/131/71 107/132/71 101/126/72 100/125/72
f 34/34/73 108/133/73 102/127/71 39/54/71
f 108/133/73 109/134/73 103/128/71 102/127/71
f 101/126/72 167/193/43 166/192/49 95/120/74
f 95/120/74 166/192/49 165/190/57 89/114/75
f 89/113/75 165/191/57 164/189/61 83/102/76
f 83/102/76 164/189/61 163/188/63 71/90/77
f 71/90/77 163/188/63 162/187/69 57/76/78
f 57/76/78 162/187/69 177/203/8 161/186/70
f 54/72/75 84/103/75 76/95/76 61/80/76
f 81/100/76 82/101/76 70/89/77 69/88/77
f 77/96/76 78/97/76 64/83/77 63/82/77
f 61/80/76 76/95/76 62/81/77 68/87/77
f 69/88/77 70/89/77 56/75/78 55/74/78
f 63/82/77 64/83/77 50/65/78 49/64/78
f 114/139/79 115/140/79 109/134/73 108/133/73
f 30/30/79 114/139/79 108/133/73 34/34/73
f 112/137/73 113/138/73 107/132/71 106/131/71
f 111/136/73 112/137/73 106/131/71 105/130/71
f 110/135/73 111/136/73 105/130/71 104/129/71
f 109/134/73 110/135/73 104/129/71 103/128/71
f 137/162/47 173/199/21 172/198/25 131/156/80
f 131/156/80 172/198/25 171/197/28 125/150/81
f 125/150/81 171/197/28 170/196/31 119/144/79
f 119/144/79 170/196/31 169/195/37 113/138/73
f 113/138/73 169/195/37 168/194/41 107/132/71
f 107/132/71 168/194/41 167/193/43 101/126/72
f 85/105/75 86/107/75 78/97/76 77/96/76
f 87/109/75 88/111/75 82/101/76 81/100/76
f 47/62/74 90/115/74 84/104/75 54/73/75
f 91/116/74 92/117/74 86/108/75 85/106/75
f 93/118/74 94/119/74 88/112/75 87/110/75
f 43/58/72 96/121/72 90/115/74 47/62/74
f 84/103/75 85/105/75 77/96/76 76/95/76
f 82/101/76 83/102/76 71/90/77 70/89/77
f 78/97/76 81/100/76 69/88/77 64/83/77
f 76/95/76 77/96/76 63/82/77 62/81/77
f 70/89/77 71/90/77 57/76/78 56/75/78
f 64/83/77 69/88/77 55/74/78 50/65/78
f 86/107/75 87/109/75 81/100/76 78/97/76
f 88/111/75 89/113/75 83/102/76 82/101/76
f 90/115/74 91/116/74 85/106/75 84/104/75
f 92/117/74 93/118/74 87/110/75 86/108/75
f 94/119/74 95/120/74 89/114/75 88/112/75
f 96/121/72 97/122/72 91/116/74 90/115/74
f 68/87/77 62/81/77 48/63/78 75/94/78
f 55/74/78 56/75/78 160/185/70 159/184/70
f 49/64/78 50/65/78 158/183/70 157/182/70
f 75/94/78 48/63/78 156/181/70 2/2/70
f 135/160/47 136/161/47 130/155/80 129/154/80
f 133/158/47 134/159/47 128/153/80 127/152/80
f 18/18/47 132/157/47 126/151/80 22/22/80
f 129/154/80 130/155/80 124/149/81 123/148/81
f 127/152/80 128/153/80 122/147/81 121/146/81
f 22/22/80 126/151/80 120/145/81 26/26/81
f 123/148/81 124/149/81 118/143/79 117/142/79
f 121/146/81 122/147/81 116/141/79 115/140/79
f 62/81/77 63/82/77 49/64/78 48/63/78
f 56/75/78 57/76/78 161/186/70 160/185/70
f 50/65/78 55/74/78 159/184/70 158/183/70
f 48/63/78 49/64/78 157/182/70 156/181/70
f 136/161/47 137/162/47 131/156/80 130/155/80
f 134/159/47 135/160/47 129/154/80 128/153/80
f 6/6/52 150/175/52 144/169/53 10/10/53
f 159/184/70 160/185/70 154/179/52 153/178/52
f 157/182/70 158/183/70 152/177/52 151/176/52
f 2/2/70 156/181/70 150/175/52 6/6/52
f 99/124/72 100/125/72 94/119/74 93/118/74
f 97/122/72 98/123/72 92/117/74 91/116/74
f 132/157/47 133/158/47 127/152/80 126/151/80
f 130/155/80 131/156/80 125/150/81 124/149/81
f 128/153/80 129/154/80 123/148/81 122/147/81
f 126/151/80 127/152/80 121/146/81 120/145/81
f 124/149/81 125/150/81 119/144/79 118/143/79
f 122/147/81 123/148/81 117/142/79 116/141/79
f 150/175/52 151/176/52 145/170/53 144/169/53
f 160/185/70 161/186/70 155/180/52 154/179/52
f 158/183/70 159/184/70 153/178/52 152/177/52
f 156/181/70 157/182/70 151/176/52 150/175/52
f 100/125/72 101/126/72 95/120/74 94/119/74
f 98/123/72 99/124/72 93/118/74 92/117/74
f 120/145/81 121/146/81 115/140/79 114/139/79
f 26/26/81 120/145/81 114/139/79 30/30/79
f 118/143/79 119/144/79 113/138/73 112/137/73
f 117/142/79 118/143/79 112/137/73 111/136/73
f 116/141/79 117/142/79 111/136/73 110/135/73
f 115/140/79 116/141/79 110/135/73 109/134/73
